<svg id="visual" viewBox="0 0 2000 1000" width="2000" height="1000" xmlns="http://www.w3.org/2000/svg" xmlns:xlink="http://www.w3.org/1999/xlink" version="1.1"><path d="M0 151L105 161L211 91L316 81L421 161L526 141L632 141L737 91L842 71L947 161L1053 121L1158 131L1263 121L1368 101L1474 91L1579 151L1684 121L1789 111L1895 121L2000 131L2000 0L1895 0L1789 0L1684 0L1579 0L1474 0L1368 0L1263 0L1158 0L1053 0L947 0L842 0L737 0L632 0L526 0L421 0L316 0L211 0L105 0L0 0Z" fill="#737373"></path><path d="M0 511L105 391L211 471L316 421L421 321L526 511L632 421L737 441L842 311L947 441L1053 411L1158 411L1263 441L1368 431L1474 351L1579 341L1684 541L1789 561L1895 471L2000 291L2000 129L1895 119L1789 109L1684 119L1579 149L1474 89L1368 99L1263 119L1158 129L1053 119L947 159L842 69L737 89L632 139L526 139L421 159L316 79L211 89L105 159L0 149Z" fill="#565656"></path><path d="M0 651L105 531L211 631L316 531L421 461L526 601L632 501L737 641L842 421L947 621L1053 561L1158 571L1263 581L1368 621L1474 471L1579 431L1684 651L1789 641L1895 591L2000 421L2000 289L1895 469L1789 559L1684 539L1579 339L1474 349L1368 429L1263 439L1158 409L1053 409L947 439L842 309L737 439L632 419L526 509L421 319L316 419L211 469L105 389L0 509Z" fill="#3a3a3a"></path><path d="M0 891L105 851L211 891L316 761L421 791L526 831L632 801L737 831L842 781L947 791L1053 831L1158 881L1263 831L1368 791L1474 881L1579 791L1684 851L1789 851L1895 871L2000 771L2000 419L1895 589L1789 639L1684 649L1579 429L1474 469L1368 619L1263 579L1158 569L1053 559L947 619L842 419L737 639L632 499L526 599L421 459L316 529L211 629L105 529L0 649Z" fill="#202020"></path><path d="M0 1001L105 1001L211 1001L316 1001L421 1001L526 1001L632 1001L737 1001L842 1001L947 1001L1053 1001L1158 1001L1263 1001L1368 1001L1474 1001L1579 1001L1684 1001L1789 1001L1895 1001L2000 1001L2000 769L1895 869L1789 849L1684 849L1579 789L1474 879L1368 789L1263 829L1158 879L1053 829L947 789L842 779L737 829L632 799L526 829L421 789L316 759L211 889L105 849L0 889Z" fill="#000000"></path></svg>